<?xml version="1.0" encoding="UTF-8"?>
<svg id="Layer_1" data-name="Layer 1" xmlns="http://www.w3.org/2000/svg" viewBox="0 0 77.07 32.42">
  <defs>
    <style>
      .cls-1 {
        fill: #000000;
      }
    </style>
  </defs>
  <path class="cls-1" d="M67.17,19.95h9.9v.73c0,6.35-5.15,11.5-11.5,11.5h-9.9v-.73c0-6.35,5.26-11.33,11.5-11.5Z"/>
  <path class="cls-1" d="M21.81,10.9c0,.5-.18.93-.53,1.29-.35.35-.78.53-1.29.53s-.93-.18-1.29-.53c-.35-.35-.53-.78-.53-1.29v-4.54c0-.75-.27-1.39-.8-1.93-.53-.53-1.18-.8-1.93-.8s-1.39.27-1.93.8c-.53.53-.8,1.18-.8,1.93v4.54c0,.5-.18.93-.53,1.29s-.78.53-1.29.53-.93-.18-1.29-.53c-.35-.35-.53-.78-.53-1.29v-4.54c0-.75-.27-1.39-.8-1.93-.53-.53-1.18-.8-1.93-.8s-1.39.27-1.93.8c-.53.53-.8,1.18-.8,1.93v4.54c0,.5-.18.93-.53,1.29-.35.35-.78.53-1.29.53s-.93-.18-1.29-.53c-.35-.35-.53-.78-.53-1.29v-4.54c0-1.76.62-3.26,1.86-4.5C3.1.62,4.6,0,6.36,0s3.26.62,4.5,1.86l.05.05.05-.05c1.24-1.24,2.74-1.86,4.5-1.86s3.26.62,4.5,1.86c1.24,1.24,1.86,2.74,1.86,4.5v4.54Z"/>
  <path class="cls-1" d="M35.88,10.9c0,.5-.18.93-.53,1.29-.35.35-.78.53-1.29.53s-.93-.18-1.28-.54c-.08-.07-.15-.15-.2-.23-.91.51-1.94.76-3.06.76-1.76,0-3.26-.62-4.5-1.86-1.24-1.24-1.86-2.74-1.86-4.5s.62-3.26,1.86-4.5c1.24-1.24,2.74-1.86,4.5-1.86,1.13,0,2.15.25,3.06.76.05-.08.12-.16.2-.24.35-.35.78-.53,1.28-.53s.93.18,1.29.53c.35.35.53.78.53,1.29v9.09ZM29.52,9.09c.75,0,1.39-.27,1.93-.8.53-.53.8-1.18.8-1.93s-.27-1.39-.8-1.93c-.53-.53-1.18-.8-1.93-.8s-1.39.27-1.93.8c-.53.53-.8,1.18-.8,1.93s.27,1.39.8,1.93c.53.53,1.18.8,1.93.8Z"/>
  <path class="cls-1" d="M49.96,10.9c0,.5-.18.93-.53,1.29s-.78.53-1.29.53-.93-.18-1.29-.53c-.35-.35-.53-.78-.53-1.29v-4.54c0-.75-.27-1.39-.8-1.93-.53-.53-1.18-.8-1.93-.8s-1.39.27-1.93.8c-.53.53-.8,1.18-.8,1.93v4.54c0,.5-.18.93-.53,1.29-.35.35-.78.53-1.29.53s-.93-.18-1.29-.53c-.35-.35-.53-.78-.53-1.29v-4.54c0-1.76.62-3.26,1.86-4.5,1.24-1.24,2.74-1.86,4.5-1.86s3.26.62,4.5,1.86c1.24,1.24,1.86,2.74,1.86,4.5v4.54Z"/>
  <path class="cls-1" d="M70.71,12.72c-1.76,0-3.26-.62-4.5-1.86-1.24-1.24-1.86-2.74-1.86-4.5s.62-3.26,1.86-4.5c1.24-1.24,2.74-1.86,4.5-1.86s3.26.62,4.5,1.86c1.24,1.24,1.86,2.74,1.86,4.5s-.62,3.26-1.86,4.5c-1.24,1.24-2.74,1.86-4.5,1.86ZM70.71,9.09c.75,0,1.39-.27,1.93-.8.53-.53.8-1.18.8-1.93s-.27-1.39-.8-1.93c-.53-.53-1.18-.8-1.93-.8s-1.39.27-1.93.8c-.53.53-.8,1.18-.8,1.93s.27,1.39.8,1.93,1.17.8,1.93.8Z"/>
  <path class="cls-1" d="M12.72,30.6c0,.5-.18.93-.53,1.29-.35.35-.78.53-1.29.53s-.93-.18-1.29-.53-.53-.78-.53-1.29v-4.54c0-.75-.27-1.39-.8-1.93-.53-.53-1.18-.8-1.93-.8s-1.39.27-1.93.8c-.53.53-.8,1.17-.8,1.93v4.54c0,.5-.18.93-.53,1.29s-.78.53-1.29.53-.93-.18-1.29-.53c-.35-.35-.53-.78-.53-1.29v-11.81c0-.5.18-.93.53-1.29.35-.35.78-.53,1.29-.53s.93.18,1.29.53c.35.35.53.78.53,1.29v1.5c.82-.39,1.73-.59,2.73-.59,1.76,0,3.26.62,4.5,1.86,1.24,1.24,1.86,2.74,1.86,4.5v4.54Z"/>
  <path class="cls-1" d="M26.07,30.6c0,.5-.18.93-.53,1.29s-.78.53-1.29.53-.93-.18-1.28-.54c-.08-.07-.15-.15-.2-.23-.91.51-1.94.76-3.06.76-1.76,0-3.26-.62-4.5-1.86-1.24-1.24-1.86-2.74-1.86-4.5s.62-3.26,1.86-4.5c1.24-1.24,2.74-1.86,4.5-1.86,1.13,0,2.15.25,3.06.76.05-.08.12-.16.2-.24.35-.35.78-.53,1.28-.53s.93.18,1.29.53c.35.35.53.78.53,1.29v9.09ZM19.71,28.79c.75,0,1.39-.27,1.93-.8.53-.53.8-1.17.8-1.93s-.27-1.39-.8-1.93c-.53-.53-1.18-.8-1.93-.8s-1.39.27-1.93.8c-.53.53-.8,1.17-.8,1.93s.27,1.39.8,1.93c.53.53,1.17.8,1.93.8Z"/>
  <path class="cls-1" d="M35.84,18.79c0-.5.18-.93.53-1.29.35-.35.78-.53,1.29-.53s.93.18,1.29.53c.35.35.53.78.53,1.29v11.81c0,.5-.18.93-.53,1.29-.35.35-.78.53-1.29.53s-.93-.18-1.28-.54c-.08-.07-.15-.15-.2-.23-.91.51-1.94.76-3.06.76-1.76,0-3.26-.62-4.5-1.86-1.24-1.24-1.86-2.74-1.86-4.5s.62-3.26,1.86-4.5c1.24-1.24,2.74-1.86,4.5-1.86.99,0,1.9.2,2.73.59v-1.5ZM33.12,23.34c-.75,0-1.39.27-1.93.8-.53.53-.8,1.17-.8,1.93s.27,1.39.8,1.93,1.18.8,1.93.8,1.39-.27,1.93-.8c.53-.53.8-1.17.8-1.93s-.27-1.39-.8-1.93c-.53-.53-1.18-.8-1.93-.8Z"/>
  <path class="cls-1" d="M52.89,30.6c0,.5-.18.93-.53,1.29s-.78.53-1.29.53-.93-.18-1.28-.54c-.08-.07-.15-.15-.2-.23-.91.51-1.94.76-3.06.76-1.76,0-3.26-.62-4.5-1.86-1.24-1.24-1.86-2.74-1.86-4.5s.62-3.26,1.86-4.5c1.24-1.24,2.74-1.86,4.5-1.86,1.13,0,2.15.25,3.06.76.05-.08.12-.16.2-.24.35-.35.78-.53,1.28-.53s.93.18,1.29.53c.35.35.53.78.53,1.29v9.09ZM46.53,28.79c.75,0,1.39-.27,1.93-.8.53-.53.8-1.17.8-1.93s-.27-1.39-.8-1.93c-.53-.53-1.17-.8-1.93-.8s-1.39.27-1.93.8c-.53.53-.8,1.17-.8,1.93s.27,1.39.8,1.93,1.18.8,1.93.8Z"/>
  <path class="cls-1" d="M62.51.5c-.33-.33-.72-.49-1.18-.49s-.85.16-1.18.48c-.07.07-.13.14-.18.22-.84-.47-1.78-.7-2.81-.7-1.61,0-2.99.57-4.13,1.71-1.14,1.14-1.71,2.52-1.71,4.13s.57,2.99,1.71,4.13c1.14,1.14,2.52,1.71,4.13,1.71.96,0,1.84-.21,2.63-.62v.41c0,.66-.24,1.23-.71,1.7-.47.47-1.04.63-1.7.63s-1.07-.06-1.7-.63c-.23-.2-.38-.4-.55-.63-.38-.54-.83-.99-1.48-.99-1.15,0-1.78.9-1.45,2.15.18.67.67,1.21,1.2,1.74,1.11,1.11,2.44,1.47,4.01,1.46,1.44-.01,2.86-.41,3.89-1.42,1.1-1.08,1.65-2.39,1.67-3.92h0V1.68c0-.46-.16-.86-.49-1.18ZM58.92,7.62c-.49.49-1.08.73-1.77.73s-1.28-.24-1.77-.73c-.49-.49-.73-1.08-.73-1.77s.24-1.28.73-1.77c.49-.49,1.08-.73,1.77-.73s1.28.25,1.77.73c.49.49.73,1.08.73,1.77s-.24,1.28-.73,1.77Z"/>
</svg>